<svg xmlns="http://www.w3.org/2000/svg"><symbol fill="none" id="sprite-advantage-1" viewBox="0 0 76 76"><title>advantage-1</title><path d="M22.267 47.348c2.204 3.724 3.42 9.348 4.408 13.908.532 2.28.912 4.256 1.444 5.776 1.596 4.788 6.84 6.688 10.032 6.688l8.36-.076c1.976 0 4.484-.912 6.232-2.584 1.976-1.9 3.04-4.408 3.116-7.068l.228-16.036c0-1.216-.38-2.204-1.064-2.964-.608-.684-1.52-1.064-2.432-1.064-.76 0-1.748.304-2.432.912l.228 1.444c0-1.216-.38-2.28-1.064-3.04-.608-.684-1.52-1.064-2.508-1.064-1.292 0-2.508.608-2.888 1.292 0-.836-.228-1.292-.608-1.748-.608-.684-1.52-1.064-2.508-1.064-2.204 0-2.736 1.596-2.812 1.52V28.272c0-2.508-2.28-3.192-3.04-3.192-1.824 0-3.724 1.368-3.8 3.952V49.4c-.684-1.596-1.672-3.648-2.736-5.472-1.064-1.824-2.584-2.128-3.268-2.128-1.216 0-2.356.684-2.964 1.824-.684 1.064-.608 2.432.076 3.724zm1.14-3.04c.38-.608.988-1.064 1.672-1.064.76 0 1.52.456 2.052 1.444 2.204 3.724 3.876 8.284 3.876 8.36 0 .076 0 .076.076.152v2.66c0 .38.304.684.684.684.38 0 .684-.304.684-.684l.228-26.676c0-1.672 1.216-2.584 2.356-2.584.532 0 1.064.228 1.444.608.456.456.456 1.14.456 2.052l-.152 21.356v.076c0 .38.532.684.912.684s.684-.304.684-.684l.228-6.08c0-1.672 1.216-2.584 2.356-2.584.532 0 1.064.228 1.444.608.456.456.684 1.14.684 2.052l.076 5.852c0 .38.304.684.684.684.38 0 .684-.304.684-.684.076-.076-.076-4.408-.076-4.408 0-1.672 1.216-2.584 2.356-2.584.532 0 1.064.228 1.444.608.456.456.684 1.14.684 2.052l-.152 3.952v.38c.152.228.38.38.608.38.38 0 .684-.304.684-.684l.152-3.192c.304-1.14 1.216-1.748 2.204-1.672.532 0 1.064.228 1.444.608.456.456.684 1.14.684 1.976l-.228 16.036c-.076 5.092-4.788 8.284-7.904 8.284l-8.36.076c-1.292 0-6.992-.608-8.664-5.7-.456-1.444-.912-3.344-1.368-5.624-.988-4.636-2.28-10.488-4.56-14.364-.608-1.14-.304-1.976-.076-2.356zM17.1 32.756a4.028 4.028 0 100-8.056 4.028 4.028 0 000 8.056zm2.508-14.82a4.028 4.028 0 100-8.056 4.028 4.028 0 000 8.056zm13.072-7.144a4.028 4.028 0 100-8.056 4.028 4.028 0 000 8.056zm14.06 5.32a4.028 4.028 0 100-8.056 4.028 4.028 0 000 8.056zm4.56 12.692a4.028 4.028 0 100-8.056 4.028 4.028 0 000 8.056z" fill="#005693"/></symbol><symbol fill="none" id="sprite-advantage-2" viewBox="0 0 66 66"><title>advantage-2</title><path d="M33.33 7.26a.94.94 0 00-.792-.396.94.94 0 00-.792.396c-6.534 9.9-21.846 7.062-22.044 6.996-.264-.066-.594 0-.792.198-.198.198-.33.462-.33.726 0 19.8 7.194 30.624 11.418 35.31 5.082 5.61 11.814 8.976 12.078 9.108.132.066.264.132.396.132s.264-.066.396-.132c.264-.132 6.93-3.498 12.078-9.108 4.29-4.686 11.418-15.51 11.418-35.31 0-.264-.132-.528-.33-.726-.198-.198-.528-.264-.792-.198-.066.066-15.378 2.904-21.912-6.996zm10.296 41.976c-4.158 4.554-9.57 7.656-11.088 8.448-1.518-.858-6.93-3.894-11.088-8.448-4.026-4.356-10.692-14.454-10.956-32.934 3.762.528 15.576 1.32 22.044-6.93 6.468 8.25 18.282 7.458 22.044 6.93-.264 18.48-6.93 28.512-10.956 32.934z" fill="#005693"/><path d="M60.588 10.098c-.198-.198-.528-.264-.792-.198-.198.066-18.546 3.564-26.466-8.646-.33-.528-1.254-.528-1.584 0C23.826 13.398 5.478 9.966 5.28 9.9c-.264-.066-.594 0-.792.198-.198.198-.33.462-.33.726 0 23.958 8.514 37.026 13.596 42.702 6.072 6.798 14.058 10.824 14.388 11.022.132.066.264.132.462.132s.264-.066.462-.132c.33-.198 8.25-4.224 14.388-11.022C52.536 47.85 61.05 34.782 61.05 10.824c-.132-.264-.264-.528-.462-.726zM45.936 52.272c-5.082 5.61-11.682 9.438-13.398 10.362-1.716-.924-8.316-4.752-13.398-10.362-4.818-5.346-12.87-17.688-13.134-40.326 4.224.594 18.744 1.782 26.466-8.514 7.788 10.362 22.374 9.108 26.532 8.514-.264 22.638-8.25 34.98-13.068 40.326z" fill="#005693"/><path d="M40.129 27.852l-4.818-.726-2.178-4.356c-.198-.462-.924-.462-1.122 0l-2.178 4.356-4.818.726c-.264.066-.462.198-.528.462-.066.198 0 .462.132.66l3.498 3.432-.858 4.818c-.066.264.066.462.264.594.132.066.264.132.396.132s.198 0 .264-.066l4.356-2.244 4.356 2.244c.198.132.462.066.66-.066s.264-.396.264-.594l-.858-4.884 3.498-3.432c.198-.198.264-.396.132-.66-.066-.198-.264-.396-.462-.396z" fill="#005693"/></symbol><symbol fill="none" id="sprite-advantage-3" viewBox="0 0 97 97"><title>advantage-3</title><path d="M88.949 60.43c-1.358-2.812-4.074-4.073-7.178-3.297-6.305 1.455-17.945 4.462-22.116 5.529.29-2.231-.776-4.947-3.977-6.014-5.141-1.746-19.497-5.238-21.34-4.85-2.037.388-9.7 2.716-12.998 3.783v-3.686a.972.972 0 00-.97-.97H5.238a.972.972 0 00-.97.97V81.77c0 .485.388.97.97.97H20.37c.485 0 .97-.388.97-.97v-1.358c6.11 1.455 20.467 4.85 26.287 4.85h.873c6.402-.485 35.793-13.58 39.382-16.49 2.037-1.746 2.522-5.432 1.067-8.342zm-2.231 6.79c-2.813 2.232-32.204 15.52-38.315 16.103-4.85.388-20.952-3.395-27.063-4.85V57.618c2.813-.873 11.252-3.492 13.386-3.88 1.26-.194 14.356 2.716 20.37 4.753 2.522.873 3.007 2.91 2.619 4.365-.388 1.649-2.037 3.298-4.656 2.91-6.5-.97-13.386-2.62-13.483-2.62-.485-.096-1.067.195-1.164.68-.097.485.194 1.067.679 1.164.097 0 6.984 1.649 13.58 2.619.388.097.776.097 1.067.097 2.425 0 4.17-1.261 5.044-2.91 2.328-.582 16.296-4.171 23.377-5.82 3.007-.68 4.365 1.164 4.947 2.328 1.164 2.037.873 4.85-.388 5.917zm-35.6-33.561c.485 0 .97-.389.97-.97V16.78a.972.972 0 00-.97-.97c-.582 0-.97.388-.97.97v15.908c.097.582.485.97.97.97zm-6.305 1.067c.194.29.485.485.873.485.194 0 .291 0 .485-.097.485-.291.582-.873.388-1.358l-7.954-13.774c-.29-.485-.873-.582-1.358-.388-.485.29-.582.873-.388 1.358l7.954 13.774zm-17.46-3.589l13.774 7.954c.194.097.29.097.485.097.29 0 .679-.194.873-.485.29-.485.097-1.067-.388-1.358L28.323 29.39c-.485-.291-1.067-.097-1.358.388-.194.485 0 1.067.388 1.358zM24.25 44.716h15.907c.485 0 .97-.388.97-.97s-.388-.97-.97-.97H24.25a.972.972 0 00-.97.97c0 .582.485.97.97.97zm36.957-.97c0 .485.388.97.97.97h15.908c.485 0 .97-.388.97-.97s-.388-.97-.97-.97H62.177c-.582 0-.97.388-.97.97zm-1.359-5.043c.194.29.485.485.873.485.194 0 .29 0 .485-.097l13.774-7.954c.485-.291.582-.873.388-1.358-.291-.485-.873-.582-1.358-.388l-13.774 7.954c-.485.29-.68.873-.388 1.358zm-3.685-3.687c.194.097.291.097.485.097.291 0 .68-.194.873-.485l7.954-13.774c.291-.485.097-1.067-.388-1.358-.485-.29-1.067-.097-1.358.388l-7.954 13.774c-.194.485-.097 1.067.388 1.358z" fill="#005693"/><path d="M14.55 61.886a3.201 3.201 0 100-6.402 3.201 3.201 0 000 6.402z" fill="#fff"/></symbol><symbol fill="none" id="sprite-breadcrumbs" viewBox="0 0 4 5"><title>breadcrumbs</title><path fill-rule="evenodd" clip-rule="evenodd" d="M2.5 1.75L.75 0 0 .75 1.75 2.5 0 4.25.75 5 2.5 3.25h.001l.75-.75v-.001l-.75-.75z" fill="#005693"/></symbol><symbol id="sprite-burger" viewBox="0 0 9 10"><title>burger</title><path d="M0 0h9v2H0zm0 4h9v2H0zm0 4h9v2H0z"/></symbol><symbol fill="none" id="sprite-city" viewBox="0 0 6 3"><title>city</title><path d="M3 3L.402 0h5.196L3 3z" fill="#005693"/></symbol><symbol fill="none" id="sprite-copy" viewBox="0 0 24 25"><title>copy</title><path d="M3.773 7.543v13.323c0 .705.548 1.273 1.227 1.273h11.358c.68 0 1.227-.568 1.227-1.273V7.543c0-.705-.547-1.273-1.227-1.273H4.981c-.68.02-1.208.587-1.208 1.273zm1.359-.098l11 .02s.283.039.283.274V20.65c0 .196-.189.314-.415.314H4.98c-.038 0-.075-.059-.075-.098V7.543c0-.04.037-.098.094-.098h.132z" fill="#005693"/><path d="M19.415 3.096H8.038c-.68.02-1.208.587-1.208 1.273v.882h1.132v-.882c0-.039.038-.098.094-.098h.133l11 .02s.283.039.283.274v12.912c0 .195-.19.313-.416.313h-.528v1.176h.868c.68 0 1.226-.569 1.226-1.274V4.37a1.22 1.22 0 00-1.207-1.273z" fill="#005693"/></symbol><symbol fill="none" id="sprite-footer-logo" viewBox="0 0 134 31"><title>footer-logo</title><path fill-rule="evenodd" clip-rule="evenodd" d="M35.882 15.235v-4.17H25.46c-1.34 0-2.233.683-2.233 2.123 0 1.44.893 2.046 2.233 2.046h10.422zm26.28-9.778h-9.753l-.819 1.44 11.39 20.086h7.742l1.787-3.184L62.161 5.457zm15.335 13.34l4.615 8.11h30.523c3.945-.076 6.848-1.97 6.923-6.215 0-1.82-.521-3.411-1.861-4.624 1.34-1.364 1.861-2.804 1.861-4.775-.223-4.472-3.35-5.836-7.296-5.836H87.398v5.533h20.993c1.042 0 1.936 0 2.01 1.213 0 1.213-.968 1.213-2.01 1.213H90.599l3.127 5.532h14.814c1.042 0 1.936 0 2.01 1.213 0 1.213-.968 1.213-2.01 1.289H90.376L83.229 8.792l-5.732 10.005zm4.615-11.9l-.819-1.44h-9.752l-3.573 6.367 5.658 10.005 8.486-14.932zM50.548 8.792l-4.244 7.428V5.457h-23.97c-4.914 0-8.19 2.501-8.19 7.731 0 3.032 1.192 5.533 3.946 6.746l-3.945 7.049h10.72l3.498-6.216h7.52v6.216H51.59l4.616-8.11-5.658-10.081z" fill="#fff"/></symbol><symbol fill="none" id="sprite-header-logo" viewBox="0 0 99 23"><title>header-logo</title><path fill-rule="evenodd" clip-rule="evenodd" d="M26.51 11.303V8.21h-7.7c-.99 0-1.65.506-1.65 1.575 0 1.068.66 1.518 1.65 1.518h7.7zM45.925 4.05H38.72l-.605 1.068L46.53 20.02h5.72l1.32-2.361-7.645-13.61zm11.33 9.897l3.41 6.017h22.55c2.915-.056 5.06-1.462 5.115-4.611 0-1.35-.385-2.53-1.375-3.43.99-1.013 1.375-2.081 1.375-3.543-.165-3.318-2.475-4.33-5.39-4.33H64.57v4.105h15.51c.77 0 1.43 0 1.485.9 0 .9-.715.9-1.485.9H66.935l2.31 4.105H80.19c.77 0 1.43 0 1.485.9 0 .9-.715.9-1.485.955H66.77l-5.28-9.39-4.235 7.422zm3.41-8.829L60.06 4.05h-7.205l-2.64 4.724 4.18 7.422 6.27-11.078zm-23.32 1.406l-3.135 5.511V4.05H16.5c-3.63 0-6.05 1.856-6.05 5.736 0 2.25.88 4.105 2.915 5.005l-2.915 5.23h7.92l2.585-4.612h5.555v4.612h11.605l3.41-6.018-4.18-7.479z" fill="#fff"/></symbol><symbol fill="none" id="sprite-images-product-thumbs-next" viewBox="0 0 11 8"><title>images-product-thumbs-next</title><path fill-rule="evenodd" clip-rule="evenodd" d="M7.123 5.48l3.836-3.836L9.315 0 5.479 3.836 1.644 0 0 1.645 3.835 5.48h-.001l1.644 1.645h.002l1.645-1.644-.002-.001z" fill="#005693"/></symbol><symbol fill="none" id="sprite-info-product-catalog" viewBox="0 0 16 19"><title>info-product-catalog</title><path fill-rule="evenodd" clip-rule="evenodd" d="M10 0l6 6V0v19H0V0h10z" fill="#1568A4"/><path d="M10.5 5.5V1.207L14.793 5.5H10.5z" fill="#fff" stroke="#1568A4"/><path fill="#fff" d="M4 8h9v1H4z"/><path fill="#fff" stroke="#fff" stroke-width=".5" d="M4.25 11.25h8.5v.5h-8.5zm0 3h8.5v.5h-8.5z"/></symbol><symbol fill="none" id="sprite-item-icon-payment-1" viewBox="0 0 97 100"><title>item-icon-payment-1</title><path d="M88.949 63.432c-1.358-2.813-4.074-4.074-7.178-3.298-6.305 1.455-17.945 4.462-22.116 5.529.29-2.231-.776-4.947-3.977-6.014-5.141-1.746-19.497-5.238-21.34-4.85-2.037.388-9.7 2.716-12.998 3.783v-3.686a.972.972 0 00-.97-.97H5.238a.972.972 0 00-.97.97v29.876c0 .485.388.97.97.97H20.37c.485 0 .97-.388.97-.97v-1.358c6.11 1.455 20.467 4.85 26.287 4.85h.873c6.402-.485 35.793-13.58 39.382-16.49 2.037-1.746 2.522-5.432 1.067-8.342zm-2.231 6.79c-2.813 2.23-32.204 15.52-38.315 16.102-4.85.388-20.952-3.395-27.063-4.85V60.619c2.813-.873 11.252-3.492 13.386-3.88 1.26-.194 14.356 2.716 20.37 4.753 2.522.873 3.007 2.91 2.619 4.365-.388 1.649-2.037 3.298-4.656 2.91-6.5-.97-13.386-2.62-13.483-2.62-.485-.096-1.067.195-1.164.68-.097.485.194 1.067.679 1.164.097 0 6.984 1.649 13.58 2.619.388.097.776.097 1.067.097 2.425 0 4.17-1.261 5.044-2.91 2.328-.582 16.296-4.171 23.377-5.82 3.007-.68 4.365 1.164 4.947 2.328 1.164 2.037.873 4.85-.388 5.917z" fill="#005693"/><path d="M14.55 64.886a3.201 3.201 0 100-6.402 3.201 3.201 0 000 6.402z" fill="#fff"/><path d="M60 36v-4.56h-3v-1.98h3v-2.73h-3v-1.98h3V15h8.43c2.1 0 3.75.54 4.95 1.62 1.2 1.06 1.8 2.46 1.8 4.2 0 1.78-.6 3.21-1.8 4.29-1.2 1.08-2.85 1.62-4.95 1.62h-6v2.73h8.61v1.98h-8.61V36H60zm2.43-11.25h5.79c1.44 0 2.55-.32 3.33-.96.8-.66 1.2-1.59 1.2-2.79 0-1.22-.4-2.16-1.2-2.82-.78-.66-1.89-.99-3.33-.99h-5.79v7.56z" fill="#005693"/><circle cx="66" cy="26" r="25" stroke="#005693" stroke-width="2"/></symbol><symbol fill="none" id="sprite-item-icon-payment-2" viewBox="0 0 117 99"><title>item-icon-payment-2</title><path d="M100.883 74.887c-3.796-1.38-7.248-2.76-8.283-5.866v-5.866c2.07-1.726 5.522-5.867 6.212-9.663 1.381-.69 3.452-2.07 3.797-6.556.345-2.07-.345-3.796-1.381-4.831.69-1.38 1.381-4.14 1.381-7.247 0-9.662-4.142-16.218-10.7-16.908-.69-1.726-3.106-5.177-9.663-5.177-6.213 0-11.39 2.416-15.186 6.557-3.451 4.14-5.177 9.317-5.177 15.528 0 2.761 1.035 5.867 1.38 7.247-1.035 1.035-1.725 2.416-1.38 4.831.69 4.486 2.416 6.212 3.796 6.556 1.036 3.796 4.142 8.282 6.213 9.663v5.866c-1.036 3.106-4.487 4.486-8.283 5.866-6.903 2.76-15.877 5.867-15.877 22.085v1.38h68.337v-1.38c.69-16.218-7.938-19.324-15.186-22.085zm-10.354-4.486l2.761 2.76-4.832 7.593-3.106-4.832 5.177-5.52zM68.786 52.112v-1.035H67.75c-1.035 0-2.07-1.38-2.416-4.486-.345-2.07 1.036-2.76 1.036-2.76l1.035-.69-.69-1.381s-1.726-3.45-1.726-6.902c0-5.52 1.726-10.352 4.487-13.803 3.106-3.796 7.593-5.52 13.115-5.52 6.212 0 7.248 4.14 7.248 4.14l.345 1.035h1.035c6.558 0 8.974 7.247 8.974 14.148 0 3.796-1.726 6.902-1.726 6.902l-.69 1.035 1.035.69s1.381.69 1.036 2.76c-.346 3.107-1.726 4.487-2.416 4.487h-1.036v1.035c-.345 3.45-4.486 8.627-5.867 8.972l-.69.345v6.902l-5.522 5.866h-3.452l-5.522-5.866v-6.902l-.69-.345c-1.38-.345-5.522-5.176-5.867-8.627zM83.28 81.444h-1.724l-1.726-3.106 1.38-2.07h2.071l1.38 2.07-1.38 3.106zm2.416 14.148H79.14l2.07-12.423h2.761l1.726 12.423zm-11.044-25.19l5.177 5.52-3.451 4.832-4.832-7.592 3.106-2.76zm-9.664 7.246c2.07-.69 4.142-1.725 5.867-2.76l5.523 8.971 2.76-4.14.69 1.38-2.415 14.148h-26.23c.345-12.768 7.248-15.183 13.805-17.6zm22.434 17.944l-2.416-14.148.69-1.38 2.416 3.795 5.522-8.972c1.726 1.035 3.797 1.726 5.522 2.76 6.558 2.416 13.461 5.177 13.806 17.945h-25.54z" fill="#005693"/><path d="M52.913 62.813c-3.797-1.38-7.248-2.761-8.283-5.867V51.08c2.07-1.725 5.522-5.866 6.212-9.662 1.38-.69 3.452-2.07 3.797-6.557.345-2.07-.346-3.796-1.381-4.83.69-1.381 1.38-4.142 1.38-7.247 0-9.663-4.141-16.22-10.699-16.91-.69-2.07-3.106-5.52-9.663-5.52-6.213 0-11.39 2.415-14.841 6.556-3.451 4.14-5.177 9.317-5.177 15.528 0 2.761 1.035 5.867 1.38 7.247-1.035 1.035-1.725 2.76-1.38 4.831.69 4.486 2.416 6.212 3.796 6.557 1.036 3.795 4.142 8.282 6.213 9.662V56.6c-1.036 3.106-4.487 4.486-8.283 5.866C9.08 65.228.107 68.334.107 84.552v1.38h47.629c.345-1.035.69-2.07 1.035-2.76H2.868c.346-12.768 7.248-15.528 13.806-17.944 2.416-1.035 4.487-1.725 6.557-3.106 1.38 1.726 4.832 4.486 10.7 4.486 6.902 0 9.318-1.725 11.389-4.486 1.726 1.38 4.142 2.07 6.212 3.106 4.142 1.725 8.284 3.106 11.045 7.247 1.035-.346 1.725-.69 2.76-1.036-3.106-5.176-8.283-6.901-12.424-8.626zm-18.637.344c-5.177 0-7.593-2.415-8.284-3.45.346-.69 1.036-1.38 1.036-2.416V49.01l-.69-.345c-1.38-.69-5.177-5.52-5.523-8.972v-1.035H19.78c-1.035 0-2.07-1.38-2.416-4.486-.69-2.07.345-2.76.69-2.76l1.036-.69-.69-1.036s-1.726-3.45-1.726-6.901c0-5.522 1.726-10.353 4.487-13.804 3.45-3.795 7.938-5.866 13.115-5.866 6.212 0 7.247 4.141 7.247 4.141l.346 1.035h1.035c6.558 0 8.973 7.247 8.973 14.148 0 3.796-1.725 6.902-1.725 6.902l-.69 1.035 1.035.69s1.38.69 1.035 2.761c-.345 3.106-1.725 4.486-2.416 4.486h-1.035v1.035c-.345 3.451-4.487 8.627-5.867 8.972l-.69.345v7.936c.345 1.035.69 1.726 1.38 2.416-1.035 2.76-2.416 4.14-8.628 4.14z" fill="#005693"/></symbol><symbol fill="none" id="sprite-item-icon-payment-3" viewBox="0 0 108 107"><title>item-icon-payment-3</title><path d="M76 91v-4.56h-3v-1.98h3v-2.73h-3v-1.98h3V70h8.43c2.1 0 3.75.54 4.95 1.62 1.2 1.06 1.8 2.46 1.8 4.2 0 1.78-.6 3.21-1.8 4.29-1.2 1.08-2.85 1.62-4.95 1.62h-6v2.73h8.61v1.98h-8.61V91H76zm2.43-11.25h5.79c1.44 0 2.55-.32 3.33-.96.8-.66 1.2-1.59 1.2-2.79 0-1.22-.4-2.16-1.2-2.82-.78-.66-1.89-.99-3.33-.99h-5.79v7.56z" fill="#005693"/><circle cx="82" cy="81" r="25" stroke="#005693" stroke-width="2"/><path fill-rule="evenodd" clip-rule="evenodd" d="M46 90.997c-.166.002-.333.003-.5.003C20.371 91 0 70.629 0 45.5S20.371 0 45.5 0 91 20.371 91 45.5c0 .167 0 .334-.003.5h-2c.002-.166.003-.333.003-.5C89 21.476 69.524 2 45.5 2S2 21.476 2 45.5 21.476 89 45.5 89c.167 0 .334 0 .5-.003v2z" fill="#005693"/><path d="M52.639 89.963l-13.769 7.31.555-15.58 13.214 8.27z" fill="#005693"/></symbol><symbol fill="none" id="sprite-menu-arrow" viewBox="0 0 5 8"><title>menu-arrow</title><path fill-rule="evenodd" clip-rule="evenodd" d="M3.845 2.8L1.154 0 0 1.2 2.691 4 0 6.798l1.154 1.2 2.691-2.8.001.001L5 4h-.001v-.001l-1.153-1.2z" fill="#fff"/></symbol><symbol fill="none" id="sprite-pagination-left" viewBox="0 0 8 12"><title>pagination-left</title><path fill-rule="evenodd" clip-rule="evenodd" d="M1.768 7.152l3.769 3.852 1.615-1.65-3.769-3.852L7.152 1.65 5.537 0l-3.77 3.85L.153 5.502v.001l1.615 1.65z" fill="#005693"/></symbol><symbol fill="none" id="sprite-pagination-right" viewBox="0 0 7 12"><title>pagination-right</title><path fill-rule="evenodd" clip-rule="evenodd" d="M5.384 3.852L1.615 0 0 1.65l3.769 3.852L0 9.354l1.616 1.65 3.768-3.85L7 5.501 5.385 3.85z" fill="#005693"/></symbol><symbol fill="none" id="sprite-pdf" viewBox="0 0 28 28"><title>pdf</title><path d="M5.922 6.934v14.922c0 .79.638 1.426 1.43 1.426h13.252c.793 0 1.431-.636 1.431-1.426V6.934c0-.79-.638-1.426-1.43-1.426H7.33a1.435 1.435 0 00-1.41 1.426zm1.585-.11l12.833.022s.33.044.33.308v14.46c0 .22-.22.351-.484.351H7.331c-.044 0-.088-.065-.088-.11V6.936c0-.045.044-.11.11-.11h.154z" fill="#005693"/><path d="M8.959 12.64a7.947 7.947 0 011.233-.087c.55 0 .968.11 1.232.329.264.197.419.527.419.921 0 .395-.132.725-.375.944-.308.285-.77.417-1.298.417-.11 0-.22 0-.309-.022v1.426H8.96V12.64zm.88 1.822c.089.022.177.022.309.022.484 0 .77-.242.77-.659 0-.373-.264-.592-.704-.592a1.31 1.31 0 00-.375.044v1.185zm2.577-1.822c.33-.043.77-.087 1.233-.087.77 0 1.254.131 1.65.417.419.307.683.812.683 1.514 0 .768-.286 1.294-.66 1.624-.419.35-1.057.526-1.85.526-.462 0-.814-.022-1.034-.066V12.64h-.022zm.902 3.27c.089.022.199.022.309.022.814 0 1.364-.439 1.364-1.404 0-.834-.484-1.273-1.254-1.273-.198 0-.33.022-.418.044v2.611zm3.235-3.336h2.443v.746h-1.54v.922h1.43v.746h-1.43v1.602h-.903v-4.016z" fill="#005693"/></symbol><symbol fill="none" id="sprite-personal-engine-remove" viewBox="0 0 20 21"><title>personal-engine-remove</title><path fill-rule="evenodd" clip-rule="evenodd" d="M8.244 10.468L4.12 14.59l1.375 1.374 4.122-4.122 4.123 4.124 1.374-1.374-4.123-4.124 4.122-4.122-1.374-1.374-4.122 4.122-4.12-4.12-1.375 1.373 4.12 4.121z" fill="#E81414"/></symbol><symbol fill="none" id="sprite-search-repair" viewBox="0 0 15 15"><title>search-repair</title><g clip-path="url(#clip0)"><path d="M13.337 12.172L9.64 8.51a.477.477 0 00-.136-.108 4.588 4.588 0 00-.653-5.79 4.774 4.774 0 00-6.66 0 4.618 4.618 0 000 6.598c1.577 1.562 4.023 1.777 5.845.646.027.054.054.081.108.135l3.698 3.662c.244.243.652.243.924 0l.57-.565c.245-.27.245-.673 0-.916zm-10.33-3.77c-1.387-1.373-1.387-3.609 0-5.009 1.386-1.4 3.642-1.373 5.056 0 1.414 1.373 1.386 3.609 0 5.009a3.568 3.568 0 01-5.056 0z" fill="#252B33"/></g><defs><clipPath id="clip0"><path fill="#fff" transform="translate(.043)" d="M0 0h14v15H0z"/></clipPath></defs></symbol><symbol fill="none" id="sprite-search" viewBox="0 0 14 15"><title>search</title><path d="M13.293 12.172L9.596 8.51c-.055-.054-.082-.081-.136-.108a4.588 4.588 0 00-.653-5.79 4.774 4.774 0 00-6.66 0 4.618 4.618 0 000 6.598c1.577 1.562 4.023 1.777 5.845.646a.462.462 0 00.109.135l3.697 3.662c.244.243.652.243.924 0l.57-.565c.245-.27.245-.673 0-.916zm-10.33-3.77c-1.387-1.373-1.387-3.609 0-5.009 1.386-1.4 3.642-1.373 5.056 0 1.414 1.373 1.386 3.609 0 5.009a3.568 3.568 0 01-5.056 0z" fill="#005693"/></symbol><symbol id="sprite-star" viewBox="0 0 10 10"><title>star</title><path d="M5 0l1.123 3.455h3.632L6.816 5.59 7.94 9.045 5 6.91 2.061 9.045 3.184 5.59.244 3.455h3.633L5 0z"/></symbol><symbol fill="none" id="sprite-trash-can" viewBox="0 0 37 39"><title>trash-can</title><path d="M23.126 7.2v-.887c0-1.418-1.157-2.6-2.544-2.6h-3.469c-1.387 0-2.543 1.182-2.543 2.6v.886L7.573 7.14v1.773H30.18V7.14l-7.053.06zm-1.619-.887v.886h-5.319v-.886c0-.532.405-.946.925-.946h3.469c.52-.059.925.355.925.946zm1.735 6.619h-1.734v15.954h1.734V12.932zm-3.644 0h-1.735v15.954h1.735V12.932zm-3.641 0h-1.734v15.954h1.734V12.932z" fill="#E81414"/><path d="M26.13 10.568l-1.446 20.328c0 .472-.462.945-.982.945H13.295c-.462 0-.925-.414-.982-.945l-1.446-20.328H9.133l1.445 20.446c.116 1.418 1.33 2.6 2.717 2.6h10.407c1.387 0 2.601-1.123 2.717-2.6l1.445-20.446H26.13z" fill="#E81414"/></symbol><symbol fill="none" id="sprite-type-product-block--list" viewBox="0 0 17 13"><title>type-product-block--list</title><path fill="#005693" fill-opacity=".2" d="M.846.523h15.342v1.851H.846zm0 3.319h15.342v1.851H.846zm0 3.321h15.342v1.851H.846zm0 3.318h15.342v1.851H.846z"/></symbol><symbol fill="none" id="sprite-type-product-block--tile" viewBox="0 0 17 13"><title>type-product-block--tile</title><path fill="#005693" d="M.943.523h7.278v5.428H.943zM.941 6.9h7.278v5.428H.941zM9.004.523h7.278v5.428H9.004zm0 6.377h7.278v5.428H9.004z"/></symbol><symbol fill="none" id="sprite-write-us" viewBox="0 0 193 193"><title>write-us</title><path d="M60.774 68.563H44.018c-.59 0-1.062.59-1.062 1.297v41.654c0 .708.472 1.298 1.062 1.298h16.874c.59 0 1.062-.59 1.062-1.298V69.861c0-.709-.59-1.299-1.18-1.299zm-6.608 12.861c-2.124 0-3.894-1.77-3.894-3.894s1.77-3.894 3.894-3.894 3.894 1.77 3.894 3.895c0 2.123-1.77 3.893-3.894 3.893zm94.636-5.664h-16.874c-.59 0-1.062.59-1.062 1.298v41.654c0 .708.472 1.298 1.062 1.298h16.874c.59 0 1.062-.59 1.062-1.298V77.058c0-.708-.472-1.298-1.062-1.298zm-10.266 12.862c-2.124 0-3.894-1.77-3.894-3.894s1.77-3.894 3.894-3.894 3.894 1.77 3.894 3.894-1.77 3.894-3.894 3.894z" fill="#fff"/><path d="M61.364 76.232h22.538m-22.538 33.866l8.85-.118s8.614 14.514 9.912 16.874c2.006 3.54 5.074 3.068 6.49 3.186 1.416 0 4.484-3.068 4.484-3.068m41.3-11.564h-8.378m-37.406 2.95s4.366 6.49 6.962 10.148c2.596 3.658 7.906.236 8.732-1.888m-8.378-13.57s6.018 9.086 8.614 12.744c2.596 3.658 7.906.944 9.086-2.478" stroke="#fff" stroke-width="2.272" stroke-miterlimit="10"/><path d="M101.484 107.384s8.26 12.626 10.974 16.166c3.068 4.012 8.732-.708 9.676-2.714.354-.708-17.346-29.854-18.526-31.742-1.18-2.006-.708-2.596-4.13-3.068 0 0-7.08 9.44-12.744 11.682-4.602 1.888-8.378-4.838-8.378-4.838s17.346-19.942 18.998-19.942h19.588c2.242 0 15.458 8.142 15.458 8.142" stroke="#fff" stroke-width="2.272" stroke-miterlimit="10"/><circle cx="96.5" cy="96.5" r="95.5" stroke="#fff" stroke-width="2"/></symbol></svg>