<svg width="76" height="76" viewBox="0 0 76 76" fill="none" xmlns="http://www.w3.org/2000/svg">
<path d="M22.2674 47.3481C24.4714 51.0721 25.6874 56.6961 26.6754 61.2561C27.2074 63.5361 27.5874 65.5121 28.1194 67.0321C29.7154 71.8201 34.9594 73.7201 38.1514 73.7201L46.5114 73.6441C48.4874 73.6441 50.9954 72.7321 52.7434 71.0601C54.7194 69.1601 55.7834 66.6521 55.8594 63.9921L56.0874 47.9561C56.0874 46.7401 55.7074 45.7521 55.0234 44.9921C54.4154 44.3081 53.5034 43.9281 52.5914 43.9281C51.8314 43.9281 50.8434 44.2321 50.1594 44.8401L50.3874 46.2841C50.3874 45.0681 50.0074 44.0041 49.3234 43.2441C48.7154 42.5601 47.8034 42.1801 46.8154 42.1801C45.5234 42.1801 44.3074 42.7881 43.9274 43.4721C43.9274 42.6361 43.6994 42.1801 43.3194 41.7241C42.7114 41.0401 41.7994 40.6601 40.8114 40.6601C38.6074 40.6601 38.0754 42.2561 37.9994 42.1801C37.9994 42.1801 37.9994 30.3241 37.9994 28.2721C37.9994 25.7641 35.7194 25.0801 34.9594 25.0801C33.1354 25.0801 31.2354 26.4481 31.1594 29.0321V49.4001C30.4754 47.8041 29.4874 45.7521 28.4234 43.9281C27.3594 42.1041 25.8394 41.8001 25.1554 41.8001C23.9394 41.8001 22.7994 42.4841 22.1914 43.6241C21.5074 44.6881 21.5834 46.0561 22.2674 47.3481ZM23.4074 44.3081C23.7874 43.7001 24.3954 43.2441 25.0794 43.2441C25.8394 43.2441 26.5994 43.7001 27.1314 44.6881C29.3354 48.4121 31.0074 52.9721 31.0074 53.0481C31.0074 53.1241 31.0074 53.1241 31.0834 53.2001V55.8601C31.0834 56.2401 31.3874 56.5441 31.7674 56.5441C32.1474 56.5441 32.4514 56.2401 32.4514 55.8601L32.6794 29.1841C32.6794 27.5121 33.8954 26.6001 35.0354 26.6001C35.5674 26.6001 36.0994 26.8281 36.4794 27.2081C36.9354 27.6641 36.9354 28.3481 36.9354 29.2601L36.7834 50.6161V50.6921C36.7834 51.0721 37.3154 51.3761 37.6954 51.3761C38.0754 51.3761 38.3794 51.0721 38.3794 50.6921L38.6074 44.6121C38.6074 42.9401 39.8234 42.0281 40.9634 42.0281C41.4954 42.0281 42.0274 42.2561 42.4074 42.6361C42.8634 43.0921 43.0914 43.7761 43.0914 44.6881L43.1674 50.5401C43.1674 50.9201 43.4714 51.2241 43.8514 51.2241C44.2314 51.2241 44.5354 50.9201 44.5354 50.5401C44.6114 50.4641 44.4594 46.1321 44.4594 46.1321C44.4594 44.4601 45.6754 43.5481 46.8154 43.5481C47.3474 43.5481 47.8794 43.7761 48.2594 44.1561C48.7154 44.6121 48.9434 45.2961 48.9434 46.2081L48.7914 50.1601C48.7914 50.2361 48.7914 50.5401 48.7914 50.5401C48.9434 50.7681 49.1714 50.9201 49.3994 50.9201C49.7794 50.9201 50.0834 50.6161 50.0834 50.2361L50.2354 47.0441C50.5394 45.9041 51.4514 45.2961 52.4394 45.3721C52.9714 45.3721 53.5034 45.6001 53.8834 45.9801C54.3394 46.4361 54.5674 47.1201 54.5674 47.9561L54.3394 63.9921C54.2634 69.0841 49.5514 72.2761 46.4354 72.2761L38.0754 72.3521C36.7834 72.3521 31.0834 71.7441 29.4114 66.6521C28.9554 65.2081 28.4994 63.3081 28.0434 61.0281C27.0554 56.3921 25.7634 50.5401 23.4834 46.6641C22.8754 45.5241 23.1794 44.6881 23.4074 44.3081Z" fill="#005693"/>
<path d="M17.1003 32.7562C19.3249 32.7562 21.1283 30.9528 21.1283 28.7282C21.1283 26.5036 19.3249 24.7002 17.1003 24.7002C14.8757 24.7002 13.0723 26.5036 13.0723 28.7282C13.0723 30.9528 14.8757 32.7562 17.1003 32.7562Z" fill="#005693"/>
<path d="M19.6081 17.9359C21.8327 17.9359 23.6361 16.1325 23.6361 13.9079C23.6361 11.6833 21.8327 9.87988 19.6081 9.87988C17.3835 9.87988 15.5801 11.6833 15.5801 13.9079C15.5801 16.1325 17.3835 17.9359 19.6081 17.9359Z" fill="#005693"/>
<path d="M32.6803 10.7923C34.9049 10.7923 36.7083 8.98893 36.7083 6.76433C36.7083 4.53972 34.9049 2.73633 32.6803 2.73633C30.4557 2.73633 28.6523 4.53972 28.6523 6.76433C28.6523 8.98893 30.4557 10.7923 32.6803 10.7923Z" fill="#005693"/>
<path d="M46.7399 16.1117C48.9645 16.1117 50.7679 14.3083 50.7679 12.0837C50.7679 9.85906 48.9645 8.05566 46.7399 8.05566C44.5153 8.05566 42.7119 9.85906 42.7119 12.0837C42.7119 14.3083 44.5153 16.1117 46.7399 16.1117Z" fill="#005693"/>
<path d="M51.3005 28.804C53.5251 28.804 55.3285 27.0006 55.3285 24.776C55.3285 22.5514 53.5251 20.748 51.3005 20.748C49.0759 20.748 47.2725 22.5514 47.2725 24.776C47.2725 27.0006 49.0759 28.804 51.3005 28.804Z" fill="#005693"/>
</svg>
