<svg width="97" height="97" viewBox="0 0 97 97" fill="none" xmlns="http://www.w3.org/2000/svg">
<path d="M88.9486 60.4308C87.5906 57.6178 84.8746 56.3568 81.7706 57.1328C75.4656 58.5878 63.8256 61.5948 59.6546 62.6618C59.9456 60.4308 58.8786 57.7148 55.6776 56.6478C50.5366 54.9018 36.1806 51.4098 34.3376 51.7978C32.3006 52.1858 24.6376 54.5138 21.3396 55.5808V51.8948C21.3396 51.4098 20.9516 50.9248 20.3696 50.9248H5.23758C4.75258 50.9248 4.26758 51.3128 4.26758 51.8948V81.7708C4.26758 82.2558 4.65558 82.7408 5.23758 82.7408H20.3696C20.8546 82.7408 21.3396 82.3528 21.3396 81.7708V80.4128C27.4506 81.8678 41.8066 85.2628 47.6266 85.2628C47.9176 85.2628 48.3056 85.2628 48.4996 85.2628C54.9016 84.7778 84.2926 71.6828 87.8816 68.7728C89.9186 67.0268 90.4036 63.3408 88.9486 60.4308ZM86.7176 67.2208C83.9046 69.4518 54.5136 82.7408 48.4026 83.3228C43.5526 83.7108 27.4506 79.9278 21.3396 78.4728V57.6178C24.1526 56.7448 32.5916 54.1258 34.7256 53.7378C35.9866 53.5438 49.0816 56.4538 55.0956 58.4908C57.6176 59.3638 58.1026 61.4008 57.7146 62.8558C57.3266 64.5048 55.6776 66.1538 53.0586 65.7658C46.5596 64.7958 39.6726 63.1468 39.5756 63.1468C39.0906 63.0498 38.5086 63.3408 38.4116 63.8258C38.3146 64.3108 38.6056 64.8928 39.0906 64.9898C39.1876 64.9898 46.0746 66.6388 52.6706 67.6088C53.0586 67.7058 53.4466 67.7058 53.7376 67.7058C56.1626 67.7058 57.9086 66.4448 58.7816 64.7958C61.1096 64.2138 75.0776 60.6248 82.1586 58.9758C85.1656 58.2968 86.5236 60.1398 87.1056 61.3038C88.2696 63.3408 87.9786 66.1538 86.7176 67.2208Z" fill="#005693"/>
<path d="M51.1184 33.6586C51.6034 33.6586 52.0884 33.2705 52.0884 32.6885V16.7805C52.0884 16.2955 51.7004 15.8105 51.1184 15.8105C50.5364 15.8105 50.1484 16.1985 50.1484 16.7805V32.6885C50.2454 33.2705 50.6334 33.6586 51.1184 33.6586Z" fill="#005693"/>
<path d="M44.8133 34.7257C45.0073 35.0167 45.2983 35.2107 45.6863 35.2107C45.8803 35.2107 45.9773 35.2107 46.1713 35.1137C46.6563 34.8227 46.7533 34.2407 46.5593 33.7557L38.6053 19.9817C38.3143 19.4967 37.7323 19.3997 37.2473 19.5937C36.7623 19.8847 36.6653 20.4667 36.8593 20.9517L44.8133 34.7257Z" fill="#005693"/>
<path d="M27.3528 31.1366L41.1268 39.0906C41.3208 39.1876 41.4178 39.1876 41.6118 39.1876C41.9028 39.1876 42.2908 38.9936 42.4848 38.7026C42.7758 38.2176 42.5818 37.6356 42.0968 37.3446L28.3228 29.3906C27.8378 29.0996 27.2558 29.2936 26.9648 29.7786C26.7708 30.2636 26.9648 30.8456 27.3528 31.1366Z" fill="#005693"/>
<path d="M24.2493 44.7164H40.1573C40.6423 44.7164 41.1273 44.3284 41.1273 43.7464C41.1273 43.1644 40.7393 42.7764 40.1573 42.7764H24.2493C23.7643 42.7764 23.2793 43.1644 23.2793 43.7464C23.2793 44.3284 23.7643 44.7164 24.2493 44.7164Z" fill="#005693"/>
<path d="M61.207 43.7464C61.207 44.2314 61.595 44.7164 62.177 44.7164H78.085C78.57 44.7164 79.055 44.3284 79.055 43.7464C79.055 43.1644 78.667 42.7764 78.085 42.7764H62.177C61.595 42.7764 61.207 43.1644 61.207 43.7464Z" fill="#005693"/>
<path d="M59.8477 38.7026C60.0417 38.9936 60.3327 39.1876 60.7207 39.1876C60.9147 39.1876 61.0117 39.1876 61.2057 39.0906L74.9797 31.1366C75.4647 30.8456 75.5617 30.2636 75.3677 29.7786C75.0767 29.2936 74.4947 29.1966 74.0097 29.3906L60.2357 37.3446C59.7507 37.6356 59.5567 38.2176 59.8477 38.7026Z" fill="#005693"/>
<path d="M56.1633 35.0161C56.3573 35.1131 56.4543 35.1131 56.6483 35.1131C56.9393 35.1131 57.3273 34.9191 57.5213 34.6281L65.4753 20.8541C65.7663 20.3691 65.5723 19.7871 65.0873 19.4961C64.6023 19.2051 64.0203 19.3991 63.7293 19.8841L55.7753 33.6581C55.5813 34.1431 55.6783 34.7251 56.1633 35.0161Z" fill="#005693"/>
<path d="M14.5506 61.8864C16.3185 61.8864 17.7516 60.4532 17.7516 58.6854C17.7516 56.9175 16.3185 55.4844 14.5506 55.4844C12.7827 55.4844 11.3496 56.9175 11.3496 58.6854C11.3496 60.4532 12.7827 61.8864 14.5506 61.8864Z" fill="white"/>
</svg>
