<svg width="66" height="66" viewBox="0 0 66 66" fill="none" xmlns="http://www.w3.org/2000/svg">
<path d="M33.3301 7.26026C33.1321 6.99626 32.8681 6.86426 32.5381 6.86426C32.2081 6.86426 31.9441 6.99626 31.7461 7.26026C25.2121 17.1603 9.90008 14.3223 9.70208 14.2563C9.43808 14.1903 9.10808 14.2563 8.91008 14.4543C8.71208 14.6523 8.58008 14.9163 8.58008 15.1803C8.58008 34.9803 15.7741 45.8043 19.9981 50.4903C25.0801 56.1003 31.8121 59.4663 32.0761 59.5983C32.2081 59.6643 32.3401 59.7303 32.4721 59.7303C32.6041 59.7303 32.7361 59.6643 32.8681 59.5983C33.1321 59.4663 39.7981 56.1003 44.9461 50.4903C49.2361 45.8043 56.3641 34.9803 56.3641 15.1803C56.3641 14.9163 56.2321 14.6523 56.0341 14.4543C55.8361 14.2563 55.5061 14.1903 55.2421 14.2563C55.1761 14.3223 39.8641 17.1603 33.3301 7.26026ZM43.6261 49.2363C39.4681 53.7903 34.0561 56.8923 32.5381 57.6843C31.0201 56.8263 25.6081 53.7903 21.4501 49.2363C17.4241 44.8803 10.7581 34.7823 10.4941 16.3023C14.2561 16.8303 26.0701 17.6223 32.5381 9.37226C39.0061 17.6223 50.8201 16.8303 54.5821 16.3023C54.3181 34.7823 47.6521 44.8143 43.6261 49.2363Z" fill="#005693"/>
<path d="M60.5882 10.0984C60.3902 9.9004 60.0602 9.8344 59.7962 9.9004C59.5982 9.9664 41.2502 13.4644 33.3302 1.2544C33.0002 0.726398 32.0762 0.726398 31.7462 1.2544C23.8262 13.3984 5.4782 9.9664 5.2802 9.9004C5.0162 9.8344 4.6862 9.9004 4.4882 10.0984C4.2902 10.2964 4.1582 10.5604 4.1582 10.8244C4.1582 34.7824 12.6722 47.8504 17.7542 53.5264C23.8262 60.3244 31.8122 64.3504 32.1422 64.5484C32.2742 64.6144 32.4062 64.6804 32.6042 64.6804C32.8022 64.6804 32.8682 64.6144 33.0662 64.5484C33.3962 64.3504 41.3162 60.3244 47.4542 53.5264C52.5362 47.8504 61.0502 34.7824 61.0502 10.8244C60.9182 10.5604 60.7862 10.2964 60.5882 10.0984ZM45.9362 52.2724C40.8542 57.8824 34.2542 61.7104 32.5382 62.6344C30.8222 61.7104 24.2222 57.8824 19.1402 52.2724C14.3222 46.9264 6.2702 34.5844 6.0062 11.9464C10.2302 12.5404 24.7502 13.7284 32.4722 3.4324C40.2602 13.7944 54.8462 12.5404 59.0042 11.9464C58.7402 34.5844 50.7542 46.9264 45.9362 52.2724Z" fill="#005693"/>
<path d="M40.1288 27.8523L35.3108 27.1263L33.1328 22.7703C32.9348 22.3083 32.2088 22.3083 32.0108 22.7703L29.8328 27.1263L25.0148 27.8523C24.7508 27.9183 24.5528 28.0503 24.4868 28.3143C24.4208 28.5123 24.4868 28.7763 24.6188 28.9743L28.1168 32.4063L27.2588 37.2243C27.1928 37.4883 27.3248 37.6863 27.5228 37.8183C27.6548 37.8843 27.7868 37.9503 27.9188 37.9503C28.0508 37.9503 28.1168 37.9503 28.1828 37.8843L32.5388 35.6403L36.8948 37.8843C37.0928 38.0163 37.3568 37.9503 37.5548 37.8183C37.7528 37.6863 37.8188 37.4223 37.8188 37.2243L36.9608 32.3403L40.4588 28.9083C40.6568 28.7103 40.7228 28.5123 40.5908 28.2483C40.5248 28.0503 40.3268 27.8523 40.1288 27.8523Z" fill="#005693"/>
</svg>
