<svg width="24" height="25" viewBox="0 0 24 25" fill="none" xmlns="http://www.w3.org/2000/svg">
<path d="M3.77344 7.54304V20.8659C3.77344 21.5713 4.32061 22.1394 4.99985 22.1394H16.3583C17.0376 22.1394 17.5848 21.5713 17.5848 20.8659V7.54304C17.5848 6.83771 17.0376 6.26953 16.3583 6.26953H4.98098C4.30174 6.28912 3.77344 6.85731 3.77344 7.54304ZM5.13193 7.44508L16.1319 7.46467C16.1319 7.46467 16.4149 7.50386 16.4149 7.73897C16.4149 7.97408 16.4149 20.3761 16.4149 20.6504C16.4149 20.8463 16.2263 20.9639 15.9999 20.9639C15.5659 20.9639 15.0565 20.9639 15.0565 20.9639H5.11306H4.98098C4.94325 20.9639 4.90551 20.9051 4.90551 20.8659V7.54304C4.90551 7.50386 4.94325 7.44508 4.99985 7.44508H5.13193Z" fill="#005693"/>
<path d="M19.415 3.0957H8.03762C7.35838 3.1153 6.83008 3.68348 6.83008 4.36921V5.25088H7.96215V4.36921C7.96215 4.33003 7.99989 4.27125 8.05649 4.27125H8.18857L19.1886 4.29084C19.1886 4.29084 19.4716 4.33003 19.4716 4.56514C19.4716 4.80025 19.4716 17.2023 19.4716 17.4766C19.4716 17.6725 19.2829 17.7901 19.0565 17.7901C18.8867 17.7901 18.698 17.7901 18.5282 17.7901V18.9656H19.3961C20.0754 18.9656 20.6225 18.3974 20.6225 17.6921V4.36921C20.6414 3.66388 20.0942 3.0957 19.415 3.0957Z" fill="#005693"/>
</svg>
