<svg width="29" height="29" viewBox="0 0 29 29" fill="none" xmlns="http://www.w3.org/2000/svg">
<path d="M23.5625 3.625V1.8125H21.75V3.625H7.25V1.8125H5.4375V3.625H1.8125V22.6562C1.8125 23.3773 2.09894 24.0688 2.6088 24.5787C3.11867 25.0886 3.81019 25.375 4.53125 25.375H24.4688C25.1898 25.375 25.8813 25.0886 26.3912 24.5787C26.9011 24.0688 27.1875 23.3773 27.1875 22.6562V3.625H23.5625ZM25.375 22.6562C25.375 22.8966 25.2795 23.1271 25.1096 23.2971C24.9396 23.467 24.7091 23.5625 24.4688 23.5625H4.53125C4.2909 23.5625 4.06039 23.467 3.89043 23.2971C3.72048 23.1271 3.625 22.8966 3.625 22.6562V5.4375H5.4375V8.15625H7.25V5.4375H21.75V8.15625H23.5625V5.4375H25.375V22.6562Z" fill="#E5E5E5"/>
<path d="M5.4375 15.4062H10.875V9.96875H5.4375V15.4062ZM7.25 11.7812H9.0625V13.5938H7.25V11.7812Z" fill="#E5E5E5"/>
<path d="M11.7812 15.4062H17.2188V9.96875H11.7812V15.4062ZM13.5938 11.7812H15.4062V13.5938H13.5938V11.7812Z" fill="#E5E5E5"/>
<path d="M18.125 15.4062H23.5625V9.96875H18.125V15.4062ZM19.9375 11.7812H21.75V13.5938H19.9375V11.7812Z" fill="#E5E5E5"/>
<path d="M5.4375 21.75H10.875V16.3125H5.4375V21.75ZM7.25 18.125H9.0625V19.9375H7.25V18.125Z" fill="#E5E5E5"/>
<path d="M11.7812 21.75H17.2188V16.3125H11.7812V21.75ZM13.5938 18.125H15.4062V19.9375H13.5938V18.125Z" fill="#E5E5E5"/>
</svg>
