<svg width="134" height="31" viewBox="0 0 134 31" fill="none" xmlns="http://www.w3.org/2000/svg">
<path fill-rule="evenodd" clip-rule="evenodd" d="M35.8823 15.2345V11.0658H25.4601C24.1201 11.0658 23.2268 11.748 23.2268 13.1881C23.2268 14.6282 24.1201 15.2345 25.4601 15.2345H35.8823ZM62.1612 5.45703H52.409L51.5901 6.89713L62.9801 26.9827H70.7223L72.509 23.7993L62.1612 5.45703ZM77.4967 18.7969L82.1123 26.9069H112.635C116.58 26.8311 119.483 24.9362 119.558 20.6917C119.558 18.8727 119.037 17.281 117.697 16.0683C119.037 14.704 119.558 13.2639 119.558 11.2932C119.335 6.82133 116.208 5.45703 112.262 5.45703H87.3979V10.99H108.391C109.433 10.99 110.327 10.99 110.401 12.2028C110.401 13.4155 109.433 13.4155 108.391 13.4155H90.599L93.7256 18.9485H108.54C109.582 18.9485 110.476 18.9485 110.55 20.1612C110.55 21.3739 109.582 21.3739 108.54 21.4497H90.3756L83.229 8.79199L77.4967 18.7969ZM82.1123 6.89713L81.2934 5.45703H71.5412L67.9679 11.8238L73.6256 21.8287L82.1123 6.89713ZM50.5479 8.79199L46.3045 16.2199V5.45703H22.3334C17.4201 5.45703 14.1445 7.95825 14.1445 13.1881C14.1445 16.2199 15.3356 18.7211 18.0901 19.9338L14.1445 26.9827H24.8645L28.3634 20.7675H35.8823V26.9827H51.5901L56.2056 18.8727L50.5479 8.79199Z" fill="white"/>
</svg>
