<svg width="14" height="14" viewBox="0 0 14 14" fill="none" xmlns="http://www.w3.org/2000/svg">
<circle cx="7" cy="7" r="7" fill="#E81414"/>
<path d="M7.48 9.86C7.31333 10.0267 7.11 10.11 6.87 10.11C6.63 10.11 6.42333 10.0267 6.25 9.86C6.08333 9.68667 6 9.48 6 9.24C6 8.99333 6.08333 8.78667 6.25 8.62C6.42333 8.45333 6.63 8.37 6.87 8.37C7.11 8.37 7.31333 8.45333 7.48 8.62C7.64667 8.78667 7.73 8.99333 7.73 9.24C7.73 9.48 7.64667 9.68667 7.48 9.86ZM6.32 7.67L6.01 3H7.73L7.41 7.67H6.32Z" fill="white"/>
</svg>
