<svg width="14" height="15" viewBox="0 0 14 15" fill="none" xmlns="http://www.w3.org/2000/svg">
<path d="M13.2928 12.1722L9.59569 8.50969C9.54132 8.45583 9.51414 8.4289 9.45977 8.40197C10.6287 6.59766 10.4112 4.17396 8.80734 2.61202C6.9588 0.807712 3.99569 0.807712 2.14715 2.61202C0.298606 4.44326 0.298606 7.37863 2.14715 9.20987C3.72385 10.7718 6.17045 10.9872 7.99181 9.85618C8.01899 9.91004 8.04618 9.93698 8.10055 9.99084L11.7976 13.6533C12.0423 13.8957 12.4501 13.8957 12.7219 13.6533L13.2928 13.0878C13.5374 12.8185 13.5374 12.4145 13.2928 12.1722ZM2.96268 8.40197C1.57628 7.02854 1.57628 4.79335 2.96268 3.39299C4.34909 1.99263 6.6054 2.01956 8.01899 3.39299C9.43259 4.76642 9.4054 7.00161 8.01899 8.40197C6.63259 9.80233 4.34909 9.80233 2.96268 8.40197Z" fill="#005693"/>
</svg>
