<svg width="37" height="39" viewBox="0 0 37 39" fill="none" xmlns="http://www.w3.org/2000/svg">
<path d="M23.1258 7.19925V6.31289C23.1258 4.89471 21.9695 3.71289 20.582 3.71289H17.1133C15.7258 3.71289 14.5695 4.89471 14.5695 6.31289V7.19925L7.57422 7.14016V8.91289H30.179V7.14016L23.1258 7.19925ZM21.507 6.31289V7.19925H16.1883V6.31289C16.1883 5.78107 16.593 5.36744 17.1133 5.36744H20.582C21.1024 5.30835 21.507 5.72198 21.507 6.31289Z" fill="#E81414"/>
<path d="M23.2423 12.9316H21.5078V28.8862H23.2423V12.9316Z" fill="#E81414"/>
<path d="M19.5976 12.9316H17.8633V28.8862H19.5976V12.9316Z" fill="#E81414"/>
<path d="M15.957 12.9316H14.2227V28.8862H15.957V12.9316Z" fill="#E81414"/>
<path d="M26.1297 10.5684L24.6843 30.8957C24.6843 31.3684 24.2218 31.8411 23.7016 31.8411H13.2953C12.8328 31.8411 12.3703 31.4275 12.3125 30.8957L10.8672 10.5684H9.13281L10.5781 31.0138C10.6938 32.432 11.9078 33.6138 13.2953 33.6138H23.7016C25.0891 33.6138 26.3032 32.4911 26.4188 31.0138L27.8641 10.5684H26.1297Z" fill="#E81414"/>
</svg>
