<svg width="193" height="193" viewBox="0 0 193 193" fill="none" xmlns="http://www.w3.org/2000/svg">
<path d="M60.7741 68.5625H44.0181C43.4281 68.5625 42.9561 69.1525 42.9561 69.8605V111.514C42.9561 112.222 43.4281 112.812 44.0181 112.812H60.8921C61.4821 112.812 61.9541 112.222 61.9541 111.514V69.8605C61.9541 69.1525 61.3641 68.5625 60.7741 68.5625ZM54.1661 81.4245C52.0421 81.4245 50.2721 79.6545 50.2721 77.5305C50.2721 75.4065 52.0421 73.6365 54.1661 73.6365C56.2901 73.6365 58.0601 75.4065 58.0601 77.5305C58.0601 79.6545 56.2901 81.4245 54.1661 81.4245Z" fill="white"/>
<path d="M148.802 75.7598H131.928C131.338 75.7598 130.866 76.3498 130.866 77.0578V118.712C130.866 119.42 131.338 120.01 131.928 120.01H148.802C149.392 120.01 149.864 119.42 149.864 118.712V77.0578C149.864 76.3498 149.392 75.7598 148.802 75.7598ZM138.536 88.6218C136.412 88.6218 134.642 86.8518 134.642 84.7278C134.642 82.6038 136.412 80.8338 138.536 80.8338C140.66 80.8338 142.43 82.6038 142.43 84.7278C142.43 86.8518 140.66 88.6218 138.536 88.6218Z" fill="white"/>
<path d="M61.3643 76.2324H83.9023" stroke="white" stroke-width="2.2721" stroke-miterlimit="10"/>
<path d="M61.3643 110.098L70.2143 109.98C70.2143 109.98 78.8283 124.494 80.1263 126.854C82.1323 130.394 85.2003 129.922 86.6163 130.04C88.0323 130.04 91.1003 126.972 91.1003 126.972" stroke="white" stroke-width="2.2721" stroke-miterlimit="10"/>
<path d="M132.4 115.408H124.022" stroke="white" stroke-width="2.2721" stroke-miterlimit="10"/>
<path d="M86.6162 118.358C86.6162 118.358 90.9822 124.848 93.5782 128.506C96.1742 132.164 101.484 128.742 102.31 126.618" stroke="white" stroke-width="2.2721" stroke-miterlimit="10"/>
<path d="M93.9316 113.048C93.9316 113.048 99.9496 122.134 102.546 125.792C105.142 129.45 110.452 126.736 111.632 123.314" stroke="white" stroke-width="2.2721" stroke-miterlimit="10"/>
<path d="M101.484 107.384C101.484 107.384 109.744 120.01 112.458 123.55C115.526 127.562 121.19 122.842 122.134 120.836C122.488 120.128 104.788 90.9817 103.608 89.0937C102.428 87.0877 102.9 86.4977 99.4784 86.0257C99.4784 86.0257 92.3984 95.4657 86.7344 97.7077C82.1324 99.5957 78.3564 92.8697 78.3564 92.8697C78.3564 92.8697 95.7024 72.9277 97.3544 72.9277C99.0064 72.9277 114.7 72.9277 116.942 72.9277C119.184 72.9277 132.4 81.0697 132.4 81.0697" stroke="white" stroke-width="2.2721" stroke-miterlimit="10"/>
<circle cx="96.5" cy="96.5" r="95.5" stroke="white" stroke-width="2"/>
</svg>
