<svg width="99" height="23" viewBox="0 0 99 23" fill="none" xmlns="http://www.w3.org/2000/svg">
<path fill-rule="evenodd" clip-rule="evenodd" d="M26.5102 11.3031V8.2102H18.8102C17.8202 8.2102 17.1602 8.71631 17.1602 9.78477C17.1602 10.8532 17.8202 11.3031 18.8102 11.3031H26.5102ZM45.9252 4.04883H38.7202L38.1152 5.11729L46.5302 20.0195H52.2502L53.5702 17.6576L45.9252 4.04883ZM57.2552 13.9461L60.6652 19.9633H83.2152C86.1302 19.907 88.2752 18.5011 88.3302 15.352C88.3302 14.0024 87.9452 12.8214 86.9552 11.9217C87.9452 10.9095 88.3302 9.841 88.3302 8.3789C88.1652 5.06105 85.8552 4.04883 82.9402 4.04883H64.5702V8.15396H80.0802C80.8502 8.15396 81.5102 8.15396 81.5652 9.05372C81.5652 9.95347 80.8502 9.95347 80.0802 9.95347H66.9352L69.2452 14.0586H80.1902C80.9602 14.0586 81.6202 14.0586 81.6752 14.9584C81.6752 15.8581 80.9602 15.8581 80.1902 15.9144H66.7702L61.4902 6.52316L57.2552 13.9461ZM60.6652 5.11729L60.0602 4.04883H52.8552L50.2152 8.77254L54.3952 16.1955L60.6652 5.11729ZM37.3452 6.52316L34.2102 12.0342V4.04883H16.5002C12.8702 4.04883 10.4502 5.90457 10.4502 9.78477C10.4502 12.0342 11.3302 13.8899 13.3652 14.7897L10.4502 20.0195H18.3702L20.9552 15.4082H26.5102V20.0195H38.1152L41.5252 14.0024L37.3452 6.52316Z" fill="white"/>
</svg>
