<svg width="117" height="99" viewBox="0 0 117 99" fill="none" xmlns="http://www.w3.org/2000/svg">
<path d="M100.883 74.8873C97.0866 73.507 93.6352 72.1267 92.5998 69.021V63.1547C94.6706 61.4293 98.122 57.2884 98.8122 53.4925C100.193 52.8024 102.264 51.4221 102.609 46.9361C102.954 44.8656 102.264 43.1402 101.228 42.105C101.918 40.7247 102.609 37.9641 102.609 34.8584C102.609 25.1962 98.4671 18.6397 91.9096 17.9496C91.2193 16.2242 88.8034 12.7734 82.2458 12.7734C76.0334 12.7734 70.8564 15.189 67.0599 19.3299C63.6086 23.4708 61.8829 28.647 61.8829 34.8584C61.8829 37.619 62.9183 40.7247 63.2635 42.105C62.228 43.1402 61.5378 44.5205 61.8829 46.9361C62.5732 51.4221 64.2988 53.1475 65.6794 53.4925C66.7148 57.2884 69.821 61.7744 71.8918 63.1547V69.021C70.8564 72.1267 67.4051 73.507 63.6086 74.8873C56.7059 77.6479 47.7324 80.7536 47.7324 96.9722V98.3526H116.069V96.9722C116.759 80.7536 108.131 77.6479 100.883 74.8873ZM90.529 70.4013L93.2901 73.1619L88.4582 80.7536L85.352 75.9225L90.529 70.4013ZM68.7856 52.1122V51.077H67.7502C66.7148 51.077 65.6794 49.6967 65.3342 46.591C64.9891 44.5205 66.3697 43.8304 66.3697 43.8304L67.4051 43.1402L66.7148 41.7599C66.7148 41.7599 64.9891 38.3091 64.9891 34.8584C64.9891 29.3371 66.7148 24.5061 69.4759 21.0553C72.5821 17.2594 77.0688 15.5341 82.5909 15.5341C88.8034 15.5341 89.8388 19.675 89.8388 19.675L90.1839 20.7102H91.2193C97.7768 20.7102 100.193 27.9568 100.193 34.8584C100.193 38.6542 98.4671 41.7599 98.4671 41.7599L97.7768 42.7951L98.8122 43.4853C98.8122 43.4853 100.193 44.1754 99.8476 46.2459C99.5025 49.3516 98.122 50.7319 97.4317 50.7319H96.3963V51.7671C96.0512 55.2179 91.9096 60.3941 90.529 60.7392L89.8388 61.0842V67.9858L84.3166 73.8521H80.8653L75.3431 67.9858V61.0842L74.6529 60.7392C73.2723 60.3941 69.1307 55.563 68.7856 52.1122ZM83.2812 81.4438C83.2812 81.4438 82.9361 81.4438 82.5909 81.4438H82.2458C81.9007 81.4438 81.9007 81.4438 81.5555 81.4438L79.8299 78.3381L81.2104 76.2676H83.2812L84.6617 78.3381L83.2812 81.4438ZM85.6972 95.5919H79.1396L81.2104 83.1692C81.5555 83.1692 81.9007 83.1692 82.2458 83.1692C82.2458 83.1692 82.2458 83.1692 82.5909 83.1692H82.9361C83.2812 83.1692 83.6264 83.1692 83.9715 83.1692L85.6972 95.5919ZM74.6529 70.4013L79.8299 75.9225L76.3785 80.7536L71.5467 73.1619L74.6529 70.4013ZM64.9891 77.6479C67.0599 76.9578 69.1307 75.9225 70.8564 74.8873L76.3785 83.8593L79.1396 79.7184L79.8299 81.0987L77.4139 95.2469H51.1838C51.5289 82.479 58.4316 80.0635 64.9891 77.6479ZM87.4228 95.5919L85.0069 81.4438L85.6972 80.0635L88.1131 83.8593L93.6352 74.8873C95.3609 75.9225 97.4317 76.6127 99.1574 77.6479C105.715 80.0635 112.618 82.8241 112.963 95.5919H87.4228Z" fill="#005693"/>
<path d="M52.9129 62.8125C49.1164 61.4322 45.6651 60.0519 44.6297 56.9462V51.0798C46.7005 49.3545 50.1518 45.2135 50.8421 41.4177C52.2227 40.7275 54.2935 39.3472 54.6386 34.8612C54.9837 32.7908 54.2935 31.0654 53.258 30.0301C53.9483 28.6498 54.6386 25.8892 54.6386 22.7835C54.6386 13.1214 50.497 6.5649 43.9394 5.87475C43.2492 3.80429 40.8332 0.353516 34.2757 0.353516C28.0633 0.353516 22.8863 2.76906 19.4349 6.90998C15.9836 11.0509 14.2579 16.2271 14.2579 22.4384C14.2579 25.1991 15.2933 28.3048 15.6384 29.6851C14.603 30.7203 13.9128 32.4457 14.2579 34.5161C14.9482 39.0021 16.6739 40.7275 18.0544 41.0726C19.0898 44.8685 22.196 49.3545 24.2668 50.7348V56.6011C23.2314 59.7068 19.7801 61.0871 15.9836 62.4674C9.0809 65.228 0.107422 68.3337 0.107422 84.5523V85.9326H47.7359C48.081 84.8974 48.4262 83.8622 48.7713 83.172H2.86849C3.21363 70.4042 10.1163 67.6435 16.6739 65.228C19.0898 64.1928 21.1606 63.5026 23.2314 62.1223C24.6119 63.8477 28.0633 66.6083 33.9305 66.6083C40.8332 66.6083 43.2492 64.8829 45.32 62.1223C47.0456 63.5026 49.4616 64.1928 51.5324 65.228C55.674 66.9534 59.8156 68.3337 62.5767 72.4746C63.6121 72.1295 64.3023 71.7845 65.3377 71.4394C62.2315 66.2632 57.0545 64.5379 52.9129 62.8125ZM34.2757 63.1575C29.0987 63.1575 26.6827 60.742 25.9925 59.7068C26.3376 59.0166 27.0279 58.3265 27.0279 57.2912V49.0094L26.3376 48.6643C24.9571 47.9742 21.1606 43.1431 20.8155 39.6923V38.6571H19.7801C18.7447 38.6571 17.7093 37.2768 17.3641 34.1711C16.6739 32.1006 17.7093 31.4105 18.0544 31.4105L19.0898 30.7203L18.3995 29.6851C18.3995 29.6851 16.6739 26.2343 16.6739 22.7835C16.6739 17.2623 18.3995 12.4312 21.1606 8.98044C24.6119 5.18459 29.0987 3.11413 34.2757 3.11413C40.4881 3.11413 41.5235 7.25506 41.5235 7.25506L41.8686 8.29029H42.904C49.4616 8.29029 51.8775 15.5369 51.8775 22.4384C51.8775 26.2343 50.1518 29.34 50.1518 29.34L49.4616 30.3752L50.497 31.0654C50.497 31.0654 51.8775 31.7555 51.5324 33.826C51.1872 36.9317 49.8067 38.312 49.1164 38.312H48.081V39.3472C47.7359 42.798 43.5943 47.9742 42.2138 48.3192L41.5235 48.6643V56.256V56.6011C41.8686 57.6363 42.2138 58.3265 42.904 59.0166C41.8686 61.7772 40.4881 63.1575 34.2757 63.1575Z" fill="#005693"/>
</svg>
