<svg width="97" height="100" viewBox="0 0 97 100" fill="none" xmlns="http://www.w3.org/2000/svg">
<path d="M88.9486 63.4318C87.5906 60.6188 84.8746 59.3578 81.7706 60.1338C75.4656 61.5888 63.8256 64.5958 59.6546 65.6628C59.9456 63.4318 58.8786 60.7158 55.6776 59.6488C50.5366 57.9028 36.1806 54.4108 34.3376 54.7988C32.3006 55.1868 24.6376 57.5148 21.3396 58.5818V54.8958C21.3396 54.4108 20.9516 53.9258 20.3696 53.9258H5.23758C4.75258 53.9258 4.26758 54.3138 4.26758 54.8958V84.7718C4.26758 85.2568 4.65558 85.7418 5.23758 85.7418H20.3696C20.8546 85.7418 21.3396 85.3538 21.3396 84.7718V83.4138C27.4506 84.8688 41.8066 88.2638 47.6266 88.2638C47.9176 88.2638 48.3056 88.2638 48.4996 88.2638C54.9016 87.7788 84.2926 74.6838 87.8816 71.7738C89.9186 70.0278 90.4036 66.3418 88.9486 63.4318ZM86.7176 70.2218C83.9046 72.4528 54.5136 85.7418 48.4026 86.3238C43.5526 86.7118 27.4506 82.9288 21.3396 81.4738V60.6188C24.1526 59.7458 32.5916 57.1268 34.7256 56.7388C35.9866 56.5448 49.0816 59.4548 55.0956 61.4918C57.6176 62.3648 58.1026 64.4018 57.7146 65.8568C57.3266 67.5058 55.6776 69.1548 53.0586 68.7668C46.5596 67.7968 39.6726 66.1478 39.5756 66.1478C39.0906 66.0508 38.5086 66.3418 38.4116 66.8268C38.3146 67.3118 38.6056 67.8938 39.0906 67.9908C39.1876 67.9908 46.0746 69.6398 52.6706 70.6098C53.0586 70.7068 53.4466 70.7068 53.7376 70.7068C56.1626 70.7068 57.9086 69.4458 58.7816 67.7968C61.1096 67.2148 75.0776 63.6258 82.1586 61.9768C85.1656 61.2978 86.5236 63.1408 87.1056 64.3048C88.2696 66.3418 87.9786 69.1548 86.7176 70.2218Z" fill="#005693"/>
<path d="M14.5506 64.8864C16.3185 64.8864 17.7516 63.4532 17.7516 61.6854C17.7516 59.9175 16.3185 58.4844 14.5506 58.4844C12.7827 58.4844 11.3496 59.9175 11.3496 61.6854C11.3496 63.4532 12.7827 64.8864 14.5506 64.8864Z" fill="white"/>
<path d="M60 36V31.44H57V29.46H60V26.73H57V24.75H60V15H68.43C70.53 15 72.18 15.54 73.38 16.62C74.58 17.68 75.18 19.08 75.18 20.82C75.18 22.6 74.58 24.03 73.38 25.11C72.18 26.19 70.53 26.73 68.43 26.73H62.43V29.46H71.04V31.44H62.43V36H60ZM62.43 24.75H68.22C69.66 24.75 70.77 24.43 71.55 23.79C72.35 23.13 72.75 22.2 72.75 21C72.75 19.78 72.35 18.84 71.55 18.18C70.77 17.52 69.66 17.19 68.22 17.19H62.43V24.75Z" fill="#005693"/>
<circle cx="66" cy="26" r="25" stroke="#005693" stroke-width="2"/>
</svg>
