<svg width="108" height="107" viewBox="0 0 108 107" fill="none" xmlns="http://www.w3.org/2000/svg">
<path d="M76 91V86.44H73V84.46H76V81.73H73V79.75H76V70H84.43C86.53 70 88.18 70.54 89.38 71.62C90.58 72.68 91.18 74.08 91.18 75.82C91.18 77.6 90.58 79.03 89.38 80.11C88.18 81.19 86.53 81.73 84.43 81.73H78.43V84.46H87.04V86.44H78.43V91H76ZM78.43 79.75H84.22C85.66 79.75 86.77 79.43 87.55 78.79C88.35 78.13 88.75 77.2 88.75 76C88.75 74.78 88.35 73.84 87.55 73.18C86.77 72.52 85.66 72.19 84.22 72.19H78.43V79.75Z" fill="#005693"/>
<circle cx="82" cy="81" r="25" stroke="#005693" stroke-width="2"/>
<path fill-rule="evenodd" clip-rule="evenodd" d="M46 90.9973C45.8335 90.9991 45.6669 91 45.5 91C20.371 91 0 70.629 0 45.5C0 20.371 20.371 0 45.5 0C70.629 0 91 20.371 91 45.5C91 45.6669 90.9991 45.8335 90.9973 46H88.9972C88.9991 45.8336 89 45.6669 89 45.5C89 21.4756 69.5244 2 45.5 2C21.4756 2 2 21.4756 2 45.5C2 69.5244 21.4756 89 45.5 89C45.6669 89 45.8336 88.9991 46 88.9972V90.9973Z" fill="#005693"/>
<path d="M52.6388 89.9631L38.8701 97.2721L39.4246 81.6935L52.6388 89.9631Z" fill="#005693"/>
</svg>
