<svg width="28" height="28" viewBox="0 0 28 28" fill="none" xmlns="http://www.w3.org/2000/svg">
<path d="M5.92188 6.93414V21.8558C5.92188 22.6457 6.56024 23.2821 7.35269 23.2821H20.6043C21.3967 23.2821 22.0351 22.6457 22.0351 21.8558V6.93414C22.0351 6.14418 21.3967 5.50781 20.6043 5.50781H7.33068C6.53823 5.52976 5.92188 6.16612 5.92188 6.93414ZM7.50678 6.82443L20.3401 6.84637C20.3401 6.84637 20.6703 6.89026 20.6703 7.15358C20.6703 7.4169 20.6703 21.3072 20.6703 21.6144C20.6703 21.8338 20.4502 21.9655 20.186 21.9655C19.6797 21.9655 19.0854 21.9655 19.0854 21.9655H7.48477H7.33068C7.28665 21.9655 7.24263 21.8997 7.24263 21.8558V6.93414C7.24263 6.89026 7.28666 6.82443 7.35269 6.82443H7.50678Z" fill="#005693"/>
<path d="M8.95898 12.6405C9.24515 12.5966 9.64137 12.5527 10.1917 12.5527C10.742 12.5527 11.1602 12.6625 11.4244 12.8819C11.6885 13.0794 11.8426 13.4085 11.8426 13.8035C11.8426 14.1985 11.7106 14.5277 11.4684 14.7471C11.1602 15.0324 10.698 15.164 10.1697 15.164C10.0596 15.164 9.94955 15.164 9.8615 15.1421V16.5684H8.95898V12.6405ZM9.83949 14.4618C9.92754 14.4838 10.0156 14.4838 10.1477 14.4838C10.6319 14.4838 10.9181 14.2424 10.9181 13.8255C10.9181 13.4524 10.654 13.233 10.2137 13.233C10.0376 13.233 9.90553 13.2549 9.83949 13.2769V14.4618Z" fill="#005693"/>
<path d="M12.416 12.6405C12.7462 12.5966 13.1865 12.5527 13.6487 12.5527C14.4192 12.5527 14.9034 12.6844 15.2997 12.9697C15.7179 13.2769 15.9821 13.7816 15.9821 14.4838C15.9821 15.2518 15.6959 15.7784 15.3217 16.1076C14.9034 16.4587 14.2651 16.6342 13.4726 16.6342C13.0104 16.6342 12.6582 16.6123 12.438 16.5684V12.6405H12.416ZM13.3185 15.9101C13.4066 15.932 13.5166 15.932 13.6267 15.932C14.4412 15.932 14.9915 15.4932 14.9915 14.5277C14.9915 13.6938 14.5072 13.2549 13.7368 13.2549C13.5387 13.2549 13.4066 13.2769 13.3185 13.2988V15.9101Z" fill="#005693"/>
<path d="M16.5527 12.5742H18.9961V13.3203H17.4553V14.2419H18.8861V14.988H17.4553V16.5899H16.5527V12.5742Z" fill="#005693"/>
</svg>
