<svg width="15" height="15" viewBox="0 0 15 15" fill="none" xmlns="http://www.w3.org/2000/svg">
<g clip-path="url(#clip0)">
<path d="M13.3367 12.1722L9.63964 8.50969C9.58527 8.45583 9.55808 8.4289 9.50372 8.40197C10.6726 6.59766 10.4552 4.17396 8.85129 2.61202C7.00275 0.807712 4.03964 0.807712 2.1911 2.61202C0.342552 4.44326 0.342552 7.37863 2.1911 9.20987C3.76779 10.7718 6.2144 10.9872 8.03575 9.85619C8.06294 9.91005 8.09012 9.93698 8.14449 9.99084L11.8416 13.6533C12.0862 13.8957 12.494 13.8957 12.7659 13.6533L13.3367 13.0878C13.5814 12.8185 13.5814 12.4145 13.3367 12.1722ZM3.00663 8.40197C1.62022 7.02854 1.62022 4.79335 3.00663 3.39299C4.39304 1.99263 6.64935 2.01956 8.06294 3.39299C9.47653 4.76642 9.44935 7.00161 8.06294 8.40197C6.67653 9.80233 4.39304 9.80233 3.00663 8.40197Z" fill="#252B33"/>
</g>
<defs>
<clipPath id="clip0">
<rect width="14" height="15" fill="white" transform="translate(0.0429688)"/>
</clipPath>
</defs>
</svg>
